Coordinates
version=1
nRows=11
nColumns=36
inDegrees=yes

Units are S.I. units (second, meters, Newtons, ...)
If the header above contains a line with 'inDegrees', this indicates whether rotational values are in degrees (yes) or radians (no).

endheader
time	pelvis_tilt	pelvis_list	pelvis_rotation	pelvis_tx	pelvis_ty	pelvis_tz	hip_flexion_r	hip_adduction_r	hip_rotation_r	knee_angle_r	knee_angle_r_beta	ankle_angle_r	subtalar_angle_r	mtp_angle_r	hip_flexion_l	hip_adduction_l	hip_rotation_l	knee_angle_l	knee_angle_l_beta	ankle_angle_l	subtalar_angle_l	mtp_angle_l	lumbar_extension	lumbar_bending	lumbar_rotation	arm_flex_r	arm_add_r	arm_rot_r	elbow_flex_r	pro_sup_r	arm_flex_l	arm_add_l	arm_rot_l	elbow_flex_l	pro_sup_l
      0.00000000	      5.87737052	     -1.65147492	      2.72562966	      0.21553863	      1.24218035	     -0.58954495	     -8.12433804	      1.62684911	     -4.34861853	     10.61744507	      0.18530937	     11.80454534	     -4.33021141	     -6.73395823	     -8.17779718	     -3.00836737	      2.06436893	      8.35014851	      0.14573758	      6.45565558	     -5.16232804	     -6.73395823	    -11.33306669	      2.55127983	     -1.77932601	      6.79243425	    -12.65701850	     11.62184245	     18.27044252	     84.80702561	     -3.24119338	    -10.97975854	     -6.19746597	     19.34576695	     85.67080879
      0.01666670	      6.36427698	     -1.84938318	      2.65130920	      0.22358129	      1.24132016	     -0.59261802	     -9.83817491	      1.85707469	     -3.32516458	      8.95734155	      0.15633510	     12.29684414	     -3.95510148	     -6.77697134	    -10.00699671	     -2.96903653	      3.07275006	      6.09225912	      0.10632998	      6.03698201	     -6.53038556	     -6.77697134	    -11.61965840	      2.75557101	     -0.99470639	      6.14013744	    -12.75782932	     11.59132242	     17.29490185	     84.84384924	     -2.83278760	    -10.34685595	     -6.84964721	     17.36170325	     85.82365833
      0.03333330	      6.31245008	     -1.72215454	      2.99364247	      0.22385004	      1.24524281	     -0.59245870	    -10.51970671	      2.04332739	     -3.15281083	      7.92974009	      0.13840007	     12.09803037	     -4.04973662	     -6.78585014	    -10.66923229	     -2.83820553	      4.69086583	      5.04690757	      0.08808515	      6.40972344	     -6.05140496	     -6.78585014	    -11.53491491	      2.57862326	     -1.00036173	      5.55554472	    -12.79312176	     11.56354311	     16.90388691	     84.79738092	     -1.64592476	     -9.84933348	     -6.64384770	     17.57856400	     85.89743768
      0.05000000	      6.18482169	     -1.54680198	      3.16264572	      0.22360254	      1.24419828	     -0.59212875	    -10.64744505	      1.97337368	     -2.92306733	      7.77719701	      0.13573769	     12.23393434	     -4.52161280	     -7.02383604	    -10.89885323	     -2.61464949	      5.40764814	      4.63873619	      0.08096122	      6.25052864	     -6.01493144	     -7.02383604	    -11.47149489	      2.46747905	      0.78444871	      3.98637494	    -13.11154787	     10.59041244	     17.67792832	     82.05668652	      0.49341014	     -9.85621614	     -3.88735670	     14.45696819	     84.89341007
      0.06666670	      6.07995737	     -1.36163173	      2.99436655	      0.22427903	      1.24384606	     -0.59178537	    -10.67669978	      1.86322733	     -2.25771454	      7.69169383	      0.13424538	     12.38476721	     -5.14900794	     -7.06789812	    -11.01397108	     -2.34107991	      5.63683438	      4.60844997	      0.08043263	      6.45450388	     -5.84778361	     -7.06789812	    -11.44437803	      2.23271776	      1.27779807	      3.43375614	    -13.23269081	     10.40465633	     18.50610989	     80.36852882	     -0.50145920	    -10.41176546	     -3.67596361	     15.67948073	     83.15469981
      0.08333330	      5.88781423	     -1.20089197	      2.68983919	      0.22429890	      1.24368381	     -0.59105630	    -10.43891197	      1.68608934	     -1.58041670	      7.88611279	      0.13763863	     12.48204791	     -5.72042088	     -7.20173392	    -10.97235405	     -2.09668888	      5.61698692	      4.64845024	      0.08113076	      6.61812462	     -5.57655938	     -7.20173392	    -11.25342492	      2.06334425	      1.69175443	      3.32914507	    -13.09703101	     10.85446246	     17.83973598	     78.33097538	     -0.16582364	    -10.47447054	     -2.26834121	     14.72940322	     80.77759988
      0.10000000	      5.67866451	     -1.08501661	      2.47355388	      0.22500544	      1.24346483	     -0.59083273	    -10.16693969	      1.51826792	     -1.18156179	      8.05464725	      0.14058011	     12.47458889	     -5.98470703	     -7.33326533	    -10.83803824	     -1.92298096	      5.59078588	      4.74192304	      0.08276217	      6.66434888	     -5.43993094	     -7.33326533	    -11.20489002	      1.92221676	      2.05146909	      3.33464911	    -12.98953261	     11.24689249	     17.47349930	     76.58140835	      0.05955853	    -10.48488240	     -1.24076046	     14.16071777	     78.53122851
      0.11666670	      5.64298940	     -0.99759933	      2.25459683	      0.22512304	      1.24350392	     -0.59025051	    -10.09691597	      1.36907596	     -0.82002354	      8.14079732	      0.14208372	     12.42012072	     -6.09101308	     -7.35553970	    -10.88010248	     -1.81465617	      5.42801161	      4.82027156	      0.08412961	      6.78185584	     -5.25851903	     -7.35553970	    -11.41360938	      1.78599318	      2.39158438	      3.20586994	    -12.93780071	     11.03092193	     17.83103666	     75.40097231	     -0.07378939	    -10.48080529	     -1.55460303	     14.61996691	     77.18640553
      0.13333330	      5.31230044	     -0.90922425	      2.15384842	      0.22572864	      1.24311564	     -0.59028788	     -9.70257640	      1.22481592	     -0.52375399	      8.26316212	      0.14421939	     12.23290593	     -6.43130104	     -7.39152585	    -10.52280519	     -1.70609059	      5.44938339	      5.00484729	      0.08735106	      6.84921574	     -5.22251507	     -7.39152585	    -11.05330752	      1.66925163	      2.63497491	      3.28796595	    -12.63652748	     10.99592013	     16.74453116	     74.41004366	      0.53703941	    -10.22166838	     -1.84737244	     13.12890330	     76.10060210
      0.15000000	      5.17343861	     -0.86733888	      2.13444803	      0.22558954	      1.24309258	     -0.59006101	     -9.55295355	      1.14642309	     -0.47894997	      8.30408384	      0.14493360	     12.15502398	     -6.42085047	     -7.41232366	    -10.34922981	     -1.67118203	      5.56905061	      5.15607481	      0.08999048	      6.82995262	     -5.33625215	     -7.41232366	    -11.05130606	      1.59678890	      2.74199445	      3.21042033	    -12.46503824	     10.97744111	     16.58235840	     73.93857607	      0.83537054	    -10.12567172	     -1.85034106	     12.65295404	     75.69903845
      0.16666670	      5.13211614	     -0.82737463	      2.13415521	      0.22591189	      1.24313776	     -0.59024504	     -9.54275398	      1.07729060	     -0.41555022	      8.28156894	      0.14454065	     12.02219959	     -6.39359151	     -7.44915082	    -10.30932676	     -1.64681116	      5.55897699	      5.21488936	      0.09101699	      6.79879149	     -5.23807988	     -7.44915082	    -11.17888580	      1.55059529	      3.02409162	      2.90202615	    -12.32033068	      9.45936756	     16.78812040	     76.67628207	      1.18044924	    -10.01817687	     -2.96784177	     12.37023264	     79.45624717
